# xmcd
#
# Track frame offsets: 
#        150
#        17647
#        34832
#        54257
#        69872
#        82495
#        94997
#        111657
#        126987
#        139180
#        151087
#        166697
#        180717
#        198275
#        213312
#        227920
#
# Disc length: 3244 seconds
#
# Revision: 4
# Processed by: cddbd v1.5.2PL0 Copyright (c) Steve Scherf et al.
# Submitted via: ExactAudioCopy v0.99pb5
#
DISCID=dd0caa10
DTITLE=Various Artist - Country Christmas CD1
DYEAR=1900
DGENRE=Country
TTITLE0=Christmas Like A Lullaby - John Denver
TTITLE1=White Christmas - Johnny Cash
TTITLE2=The First Noel - Lynn Anderson
TTITLE3=Honky Tonk Christmas - Johnny Paycheck
TTITLE4=Jingle Bells - Roy Clark
TTITLE5=Winter Wonderland - Glen Campbell
TTITLE6=O Little Town Of Bethlehem - Faron Young
TTITLE7=Blue Christmas - John Denver
TTITLE8=Joy To The World - Johnny Cash
TTITLE9=Frosty The Snowman - Glen Campbell
TTITLE10=What Child Is This - Connie Smith
TTITLE11=I'll Be Home For Christmas - Moe Bandy
TTITLE12=Angels We Have Heard On High - Janie Fricke
TTITLE13=Little Drummer Boy - John Denver
TTITLE14=O Holy Night - Connie Smith
TTITLE15=Silent Night - Johnny Cash
EXTD=
EXTT0=
EXTT1=
EXTT2=
EXTT3=
EXTT4=
EXTT5=
EXTT6=
EXTT7=
EXTT8=
EXTT9=
EXTT10=
EXTT11=
EXTT12=
EXTT13=
EXTT14=
EXTT15=
PLAYORDER=
